<?xml version="1.0" encoding="UTF-8" standalone="no"?>
<svg width="67px" height="67px" viewBox="0 0 67 67" version="1.1" xmlns="http://www.w3.org/2000/svg" xmlns:xlink="http://www.w3.org/1999/xlink" xmlns:sketch="http://www.bohemiancoding.com/sketch/ns">
    <!-- Generator: Sketch 3.2.2 (9983) - http://www.bohemiancoding.com/sketch -->
    <title>vaadin-spreadsheet-logo</title>
    <desc>Created with Sketch.</desc>
    <defs></defs>
    <g id="Page-1" stroke="none" stroke-width="1" fill="none" fill-rule="evenodd" sketch:type="MSPage">
        <g id="vaadin-charts-demo-mockup-2014" sketch:type="MSArtboardGroup" transform="translate(-223.000000, -113.000000)">
            <g id="Group" sketch:type="MSLayerGroup" transform="translate(116.000000, 88.000000)">
                <g id="spreadsheet-icon" transform="translate(107.000000, 25.000000)">
                    <path d="M9.96269305,7.69331395 L9.96269305,0.793373001 L9.96269305,0 L28.3553571,0 L28.3553571,0.793373001 L28.3553571,7.69331395 L9.96269305,7.69331395 L9.96269305,7.69331395 Z M50.0689189,7.69331395 L50.0689189,0.793373001 L50.0689189,0 L30.3989865,0 L30.3989865,0.793373001 L30.3989865,7.69331395 L50.0689189,7.69331395 L50.0689189,7.69331395 Z M0.255453668,9.74486434 L0.255453668,23.0799419 L0.255453668,23.0799419 L7.91906371,23.0799419 L7.91906371,9.74486434 L0.255453668,9.74486434 L0.255453668,9.74486434 Z M0.255453668,7.69331395 L0.255453668,2.4679237 C0.255453668,1.10526329 1.24872907,0 2.4736748,0 L7.91906371,0 L7.91906371,0.793373001 L7.91906371,7.69331395 L0.255453668,7.69331395 L0.255453668,7.69331395 Z M66.1625,9.74486434 L66.1625,23.0799419 L52.1125483,23.0799419 L52.1125483,9.74486434 L66.1625,9.74486434 L66.1625,9.74486434 Z M66.1625,7.69331395 L66.1625,2.4679237 C66.1625,1.10394986 65.1706885,0 63.9442789,0 L52.1125483,0 L52.1125483,0.793373001 L52.1125483,7.69331395 L66.1625,7.69331395 L66.1625,7.69331395 Z M0.255453668,25.1314922 L0.255453668,37.1843508 L0.255453668,37.1843508 L7.91906371,37.1843508 L7.91906371,25.1314922 L0.255453668,25.1314922 L0.255453668,25.1314922 Z M66.1625,25.1314922 L66.1625,37.1843508 L66.1625,37.1843508 L52.1125483,37.1843508 L52.1125483,25.1314922 L66.1625,25.1314922 Z M9.96269305,51.8016473 L9.96269305,39.2359012 L9.96269305,39.2359012 L28.3553571,39.2359012 L28.3553571,51.8016473 L9.96269305,51.8016473 Z M9.96269305,53.8531977 L9.96269305,65.8820146 L9.96269305,66.1625 L9.96269305,66.1625 L28.3553571,66.1625 L28.3553571,66.1625 L28.3553571,65.8820146 L28.3553571,53.8531977 L9.96269305,53.8531977 L9.96269305,53.8531977 Z M50.0689189,51.8016473 L50.0689189,39.2359012 L50.0689189,39.2359012 L30.3989865,39.2359012 L30.3989865,51.8016473 L50.0689189,51.8016473 L50.0689189,51.8016473 Z M50.0689189,53.8531977 L50.0689189,65.8820146 L50.0689189,66.1625 L50.0689189,66.1625 L30.3989865,66.1625 L30.3989865,66.1625 L30.3989865,65.8820146 L30.3989865,53.8531977 L50.0689189,53.8531977 L50.0689189,53.8531977 Z M0.255453668,51.8016473 L0.255453668,39.2359012 L0.255453668,39.2359012 L7.91906371,39.2359012 L7.91906371,51.8016473 L0.255453668,51.8016473 L0.255453668,51.8016473 Z M0.255453668,53.8531977 L0.255453668,63.6945763 C0.255453668,65.0585501 1.24726513,66.1625 2.4736748,66.1625 L7.91906371,66.1625 L7.91906371,66.1625 L7.91906371,65.8820146 L7.91906371,53.8531977 L0.255453668,53.8531977 L0.255453668,53.8531977 Z M66.1625,51.8016473 L66.1625,39.2359012 L66.1625,39.2359012 L52.1125483,39.2359012 L52.1125483,51.8016473 L66.1625,51.8016473 L66.1625,51.8016473 Z M66.1625,53.8531977 L66.1625,63.6945763 C66.1625,65.0572367 65.1692246,66.1625 63.9442789,66.1625 L52.1125483,66.1625 L52.1125483,66.1625 L52.1125483,65.8820146 L52.1125483,53.8531977 L66.1625,53.8531977 L66.1625,53.8531977 Z" id="Rectangle-8" fill="#FFFFFF" sketch:type="MSShapeGroup"></path>
                    <rect id="Path" fill="#439BF2" sketch:type="MSShapeGroup" x="12.7726834" y="11.7964147" width="34.2307915" height="23.0799419" rx="2"></rect>
                    <text id="f(x)" fill="#FFFFFF" sketch:type="MSTextLayer" font-family="Helvetica Rounded LT Std" font-size="17.7464789" font-weight="bold">
                        <tspan x="17.6651062" y="28.9774225">f(x)</tspan>
                    </text>
                </g>
            </g>
        </g>
    </g>
</svg>